<mxfile host="app.diagrams.net" modified="2024-04-09T16:24:51.272Z" agent="Mozilla/5.0 (Windows NT 10.0; Win64; x64) AppleWebKit/537.36 (KHTML, like Gecko) Chrome/123.0.0.0 Safari/537.36 Edg/123.0.0.0" version="24.2.3" etag="vUa73AJF06LU97Vm3mGa" type="github">
  <diagram name="PÃ¡gina-1" id="3KGh3mCXcJnCcN5NJFPf">
    <mxGraphModel>
      <root>
        <mxCell id="0" />
        <mxCell id="1" parent="0" />
      </root>
    </mxGraphModel>
  </diagram>
</mxfile>
